<svg xmlns="http://www.w3.org/2000/svg" xmlns:xlink="http://www.w3.org/1999/xlink" fill="#000000" version="1.1" id="Capa_1" width="800px" height="800px" viewBox="0 0 384.47 384.47" xml:space="preserve">
<g>
	<path d="M312.335,331.843c-2.448-1.224-4.896-0.611-6.732,0c-4.284-0.611-7.956-1.224-12.24-1.836   c3.672-23.867,1.225-47.124-11.016-68.544c-15.912-27.54-66.096-51.407-48.349-88.74c11.628-25.092,39.168-37.332,48.96-64.26   c6.732-17.136,8.568-44.064,3.061-63.036c15.3-2.448,36.107-9.18,32.436-22.644C311.723-0.473,270.106,0.75,251.746,0.139   c-32.436-1.224-64.872,6.12-97.308,3.672C133.63,1.975,112.21,1.975,91.402,4.423C81.61,5.647,60.19,8.095,57.743,20.334   c-1.836,7.956,1.224,14.688,7.956,17.748c0.612,1.836,1.224,3.06,3.672,3.672c5.508,0.612,10.404,1.224,15.912,1.836   c-4.284,24.48-3.672,53.856,7.956,74.664c13.464,25.092,39.78,38.556,55.692,61.2c19.584,28.153-37.944,60.588-50.796,80.172   c-15.3,24.48-22.032,50.185-14.076,77.112c-0.612,0-1.224,0-1.836,0c-18.972-4.284-36.72,13.464-21.42,32.436   c18.36,22.032,59.976,14.688,84.456,11.628c50.796-5.508,103.428,0.612,154.224-9.18   C325.799,367.951,344.771,345.919,312.335,331.843z M239.507,236.983L239.507,236.983c-1.836-1.836-3.672-1.836-6.12-1.836   c-0.612-2.448-1.225-5.508-2.448-7.956C233.998,230.863,236.446,233.923,239.507,236.983z M149.542,92.551   c-0.612,0-1.224,0-1.836,0c-3.672,0-6.732-0.612-9.792-1.224c0-0.612,0-1.224-0.612-1.836   C142.199,91.327,145.871,91.939,149.542,92.551z M135.466,243.715c1.836-1.836,3.672-3.672,6.12-5.508   c-0.612,1.225-1.224,2.448-1.836,3.672l0,0c-1.836,1.225-3.672,3.061-5.508,4.896c-0.612,0-0.612,0-1.224,0   C133.63,245.551,134.854,244.939,135.466,243.715z M166.679,352.039c-0.612-0.611-0.612-1.836-1.836-2.448   c3.06,0,6.12-0.611,9.18-0.611c0,0.611,0,1.224,0,1.836C171.575,350.815,169.126,351.428,166.679,352.039z M195.442,333.067   c-28.152,1.224-60.588-1.224-90.576,1.224c0-2.448,0.612-4.896,1.224-6.731c1.224,0,1.836-0.612,3.06-0.612   c1.224-0.612,1.836-3.06,0-3.672c-0.612,0-1.224-0.612-1.836-0.612c8.568-25.092,33.66-30.6,55.692-48.348   c21.42-17.748,20.196-56.304,15.3-80.784c-4.284-23.869-29.988-38.557-45.288-55.081c-16.524-18.36,17.136-15.3,19.584-14.688   c9.792,0.612,19.584,2.448,29.376,3.06c20.808,1.224,41.616,1.224,63.036,1.224c-11.017,17.748-37.332,28.152-48.348,46.512   c-11.628,18.973-4.896,44.677-1.837,64.873c7.956,48.348,64.872,45.899,75.276,89.964   C245.015,329.396,219.311,332.455,195.442,333.067z"/>
</g>
</svg>